<svg id="Capa_1" data-name="Capa 1" xmlns="http://www.w3.org/2000/svg" viewBox="0 0 20 20"><defs><style>.cls-1{fill:#fff;}</style></defs><title>3</title><rect width="20" height="20"/><polygon class="cls-1" points="14.9 16.05 14.75 16.05 14.75 10.74 17.02 12.31 16.93 12.43 14.9 11.02 14.9 16.05"/><rect class="cls-1" x="7.6" y="3.14" width="0.17" height="2.11"/><rect class="cls-1" x="3.92" y="5.71" width="0.15" height="3.19"/><rect class="cls-1" x="16" y="6.35" width="0.15" height="3.04"/><rect class="cls-1" x="12.6" y="3.14" width="0.17" height="2.11"/><rect class="cls-1" x="13.18" y="5.53" width="2.11" height="0.17"/><rect class="cls-1" x="5.19" y="5.53" width="2.11" height="0.17"/><rect class="cls-1" x="5.13" y="13.71" width="4.69" height="0.17"/><rect class="cls-1" x="5.13" y="14.22" width="4.69" height="0.17"/><rect class="cls-1" x="5.13" y="14.77" width="4.69" height="0.17"/><rect class="cls-1" x="5.13" y="15.29" width="4.69" height="0.17"/><rect class="cls-1" x="5.13" y="15.83" width="4.69" height="0.17"/><path class="cls-1" d="M12.73,16h-.27V5.85H9.67v4h-2V5.58h5.11ZM7.88,9.58H9.4V5.85H7.88Z"/><rect class="cls-1" x="7.85" y="6.34" width="1.28" height="0.3"/><rect class="cls-1" x="7.85" y="7.14" width="1.28" height="0.3"/><rect class="cls-1" x="7.85" y="7.93" width="1.28" height="0.3"/><rect class="cls-1" x="7.85" y="8.73" width="1.28" height="0.3"/><rect class="cls-1" x="0.68" y="16.43" width="18.29" height="0.43"/><polygon class="cls-1" points="10.23 16.05 10.08 16.05 10.08 5.64 11.37 5.64 11.37 15.87 11.88 15.87 11.88 6.35 17.02 10.03 16.93 10.15 12.03 6.64 12.03 16.02 11.22 16.02 11.22 5.79 10.23 5.79 10.23 16.05"/><polygon class="cls-1" points="10.9 16.02 10.17 16.02 10.17 15.87 10.76 15.87 10.76 13.36 4.79 13.36 4.79 16.02 3.92 16.02 3.92 9.59 3.95 9.56 7.63 6.91 7.72 7.03 4.07 9.66 4.07 15.87 4.64 15.87 4.64 13.21 10.9 13.21 10.9 16.02"/><rect class="cls-1" x="0.74" y="10.62" width="3.15" height="0.17" transform="translate(-5.86 3.42) rotate(-36.11)"/><rect class="cls-1" x="17.92" y="9.94" width="0.15" height="3.13" transform="translate(-1.71 19.74) rotate(-55.28)"/><polygon class="cls-1" points="13.74 16.01 13.45 16.01 13.45 12.78 9.65 12.78 6.2 10.39 2.79 12.79 2.62 12.54 6.2 10.03 9.75 12.48 13.74 12.48 13.74 16.01"/><rect class="cls-1" x="3.14" y="12.27" width="0.3" height="3.77"/><polygon class="cls-1" points="4.8 11.3 4.5 11.3 4.5 9.94 7.66 7.7 7.84 7.94 4.8 10.1 4.8 11.3"/><polygon class="cls-1" points="16.2 16.05 15.94 16.05 15.94 10.35 12.52 7.98 12.67 7.76 16.2 10.21 16.2 16.05"/><rect class="cls-1" x="15.26" y="12.36" width="0.8" height="0.95"/><rect class="cls-1" x="15.26" y="13.81" width="0.8" height="0.95"/><rect class="cls-1" x="5.56" y="11.34" width="0.55" height="0.55"/><rect class="cls-1" x="6.33" y="11.34" width="0.55" height="0.55"/><rect class="cls-1" x="5.56" y="12.08" width="0.55" height="0.55"/><rect class="cls-1" x="6.33" y="12.08" width="0.55" height="0.55"/></svg>